PathFileType	4	(X/Y/Z)	D:\TRACE\v60_Jaco2_6-2-23\BothDRS_Motion3_8-platform.trc
DataRate	CameraRate	NumFrames	NumMarkers	Units	OrigDataRate	OrigDataStartFrame	OrigNumFrames
100.00	100.00	      53	5	mm	100.00	5251	      7000
Frame#	Time	Left_Front			Right_Front			Left_Aft			Right_Aft			Post			
		X1	Y1	Z1	X2	Y2	Z2	X3	Y3	Z3	X4	Y4	Z4	X5	Y5	Z5	

5251	52.500	-787.28027	-16.92422	-656.41022	783.08319	-17.93938	-634.09424	-718.00964	29.49161	478.96979	695.53741	29.14376	581.91205	8.38531	1267.28735	-1020.13824	
5252	52.510	-787.20563	-17.13854	-656.25977	784.03149	-18.80101	-634.36932	-717.63629	30.05898	478.76392	696.36285	30.13740	581.61359	9.03837	1266.49841	-1021.23578	
5253	52.520	-786.68433	-17.79007	-656.70868	784.26398	-19.35025	-634.51202	-717.07959	30.31192	478.54672	697.19678	30.88990	581.41522	9.41056	1265.63123	-1022.50800	
5254	52.530	-786.17615	-18.02333	-656.97461	784.49957	-19.79558	-634.56488	-716.84570	30.56805	478.47519	698.06934	31.62135	581.37836	9.57060	1264.61035	-1024.14099	
5255	52.540	-785.81281	-18.61827	-657.12927	785.02429	-20.30535	-634.73022	-716.63269	30.89799	478.24411	697.90613	31.65777	581.26154	9.95520	1263.94580	-1025.46899	
5256	52.550	-785.52637	-18.98577	-657.06982	785.18555	-20.60462	-634.89929	-716.38043	31.36453	478.06351	698.05219	31.85366	581.18958	10.15858	1263.40369	-1027.01331	
5257	52.560	-785.43127	-19.19611	-657.36975	785.59668	-21.12774	-634.98859	-716.03571	31.66667	477.94528	698.27356	32.21348	581.07062	10.37574	1262.71619	-1028.54480	
5258	52.570	-785.23755	-20.09179	-657.53076	785.80762	-21.47056	-635.03314	-715.73346	31.81945	477.86911	698.73712	32.72797	580.86420	11.07178	1261.83923	-1029.74072	
5259	52.580	-784.89868	-20.54599	-657.58160	786.23962	-21.80758	-635.06683	-715.29108	32.03141	477.78903	698.94019	32.96903	580.71747	11.31072	1261.30139	-1030.85156	
5260	52.590	-784.39661	-21.08422	-657.51758	786.60846	-22.28781	-635.17291	-714.98877	32.24197	477.72650	699.38715	33.28988	580.70844	11.60433	1260.93958	-1032.21680	
5261	52.600	-784.04517	-21.40100	-657.34943	786.97681	-22.60726	-635.04547	-714.70789	33.01481	477.56506	700.06561	33.72511	580.73389	11.85982	1260.22815	-1032.91858	
5262	52.610	-783.31525	-22.15855	-657.41333	787.20264	-23.14965	-635.29993	-713.97913	33.01274	477.58499	699.85498	33.77869	580.76013	12.34156	1259.28455	-1033.91174	
5263	52.620	-783.26343	-22.04024	-657.54102	787.55078	-23.52079	-635.25946	-713.69659	33.16649	477.45901	700.13831	34.02906	580.55096	12.53600	1258.86926	-1034.56787	
5264	52.630	-782.80280	-22.38095	-657.66907	787.92206	-23.97133	-635.25732	-713.61389	33.70560	477.21768	700.82190	34.62884	580.19958	13.17499	1258.42468	-1034.99792	
5265	52.640	-782.53333	-22.71317	-657.90411	788.31012	-24.45067	-635.40851	-713.36810	34.06195	476.91019	701.21240	34.89351	580.04114	13.59071	1257.34180	-1035.57117	
5266	52.650	-782.14270	-23.13196	-657.85168	788.75439	-24.73644	-635.45892	-712.97699	34.38854	476.86829	701.50519	35.26478	580.04388	13.79616	1256.72961	-1036.05640	
5267	52.660	-781.59772	-23.90779	-658.16071	789.17450	-25.12885	-635.65088	-712.46295	34.51196	476.84299	701.92505	35.55872	580.00647	14.11843	1256.38562	-1036.18152	
5268	52.670	-781.38568	-24.17606	-658.02344	789.55731	-25.53750	-635.69232	-712.11462	34.49223	476.85730	702.29443	35.81815	579.88452	14.52319	1255.87219	-1036.48828	
5269	52.680	-780.93549	-24.47978	-657.81586	789.79291	-25.83671	-635.86377	-711.78040	34.72007	476.96475	702.57843	35.99387	579.43701	15.11167	1255.00989	-1036.98755	
5270	52.690	-780.38507	-24.83966	-657.88287	790.38495	-26.17414	-635.77887	-711.26276	34.92986	476.92346	702.81775	36.25098	579.37134	15.48967	1254.51477	-1037.34216	
5271	52.700	-780.01605	-25.16405	-658.15375	790.61694	-26.56683	-635.84381	-710.78656	35.19710	476.82208	703.21851	36.54574	579.16223	15.71054	1254.23010	-1037.75769	
5272	52.710	-779.57892	-25.58835	-658.41473	790.99323	-26.84212	-635.88141	-710.54846	35.39884	476.70407	703.56335	36.75977	578.96643	16.13781	1253.91956	-1038.52722	
5273	52.720	-779.39435	-25.76276	-658.51880	791.20428	-27.16431	-635.95007	-710.27618	35.59414	476.61884	704.24329	36.98971	579.44611	16.12631	1253.29065	-1039.07141	
5274	52.730	-779.01349	-26.22650	-658.63385	791.68567	-27.44983	-635.90820	-709.84656	35.79984	476.43799	704.13446	36.79825	579.44189	16.56225	1252.92004	-1040.25732	
5275	52.740	-778.65082	-26.54108	-658.48889	792.12122	-27.64428	-635.99579	-709.47095	35.98859	476.30292	705.22742	37.57304	579.28613	17.25272	1252.40796	-1041.31238	
5276	52.750	-778.54773	-26.34332	-658.46313	792.52191	-27.95204	-636.05157	-709.02264	36.12316	476.26178	705.58502	37.77708	579.31750	17.68516	1252.06287	-1041.97876	
5277	52.760	-778.10028	-26.48940	-658.38794	792.98114	-28.23755	-636.12909	-708.55243	36.37690	476.19818	705.84320	37.88748	579.22308	18.25429	1251.72961	-1042.81519	
5278	52.770	-777.47894	-26.87376	-658.48462	793.34149	-28.38598	-636.02728	-708.26642	36.44586	476.14465	706.06610	37.92215	579.08459	18.23451	1251.04919	-1043.31177	
5279	52.780	-776.79913	-27.32539	-658.43805	793.62872	-28.60403	-636.09558	-707.74841	36.53514	476.22284	706.47119	38.13954	579.00201	18.73874	1250.82007	-1044.02112	
5280	52.790	-776.36078	-27.62882	-658.67535	793.85510	-28.85227	-636.13934	-707.21564	36.55946	476.15936	706.98914	38.39032	578.91986	19.28895	1250.39807	-1044.60962	
5281	52.800	-776.37213	-27.50488	-658.77155	794.33917	-29.09150	-636.19403	-707.05048	36.85114	476.15485	707.26056	38.54990	578.88440	19.77658	1250.06506	-1044.80884	
5282	52.810	-776.22662	-27.68348	-658.72150	794.80518	-29.28229	-636.21777	-706.47717	37.00307	476.11771	707.27692	38.42028	579.21014	20.34451	1249.78882	-1045.12488	
5283	52.820	-775.67694	-27.87396	-658.73627	795.28607	-29.42357	-636.26892	-706.19360	37.12310	476.12704	707.77484	38.77934	578.96259	20.65878	1249.62134	-1045.38342	
5284	52.830	-775.08807	-27.88178	-658.78864	795.73462	-29.55360	-636.36676	-705.77014	37.14458	476.12634	708.31714	38.77709	578.84802	20.97361	1249.43933	-1045.60681	
5285	52.840	-774.75964	-28.06488	-658.89032	796.17676	-29.64102	-636.25800	-705.38391	37.18599	476.01456	708.75635	38.90144	578.77606	21.32462	1249.16589	-1045.84302	
5286	52.850	-774.43475	-28.41179	-658.75970	796.59277	-29.98267	-636.30853	-705.05017	37.26528	475.86649	709.18842	39.08517	578.73883	21.18011	1248.84363	-1045.67566	
5287	52.860	-773.88043	-28.77595	-658.62976	796.90881	-30.32505	-636.35278	-704.64661	37.44743	475.84518	709.55042	39.34349	578.71472	21.33814	1248.43384	-1045.59082	
5288	52.870	-773.46332	-28.82479	-658.51770	797.26221	-30.13252	-636.45764	-704.24243	37.54494	475.72519	710.05969	39.46904	578.72601	22.22756	1248.44629	-1045.98718	
5289	52.880	-773.06317	-28.76094	-658.48999	797.70868	-30.19679	-636.44330	-703.72070	37.57459	475.68277	710.67712	39.65145	578.76587	22.96683	1248.27051	-1045.88965	
5290	52.890	-772.53485	-28.88353	-658.45862	798.12732	-30.45595	-636.43774	-703.43890	37.83282	475.56345	710.73676	39.71621	578.80737	23.34833	1248.09192	-1045.98962	
5291	52.900	-772.09027	-29.19671	-658.52838	798.51624	-30.50091	-636.41272	-703.16510	37.81897	475.51761	711.30377	39.61224	578.65997	23.64150	1248.00220	-1046.18506	
5292	52.910	-771.87079	-29.54911	-658.24323	798.87622	-30.41569	-636.48047	-702.80591	37.89605	475.52713	711.68494	39.55815	578.62512	24.21392	1247.93115	-1046.37134	
5293	52.920	-771.28223	-29.67686	-658.53076	799.51343	-30.39031	-636.26538	-702.37262	37.97153	475.56192	711.98230	39.61491	578.62799	24.70305	1247.81934	-1046.53833	
5294	52.930	-770.98260	-29.11645	-658.85425	799.80188	-30.57671	-636.33344	-701.88782	37.83434	475.66238	712.40222	39.61082	578.64337	24.72132	1247.60425	-1046.50806	
5295	52.940	-770.51263	-29.27206	-658.77271	800.10681	-30.53767	-636.40479	-701.43561	37.85892	475.78897	712.89825	39.63853	578.62225	25.25690	1247.85291	-1046.94092	
5296	52.950	-770.04047	-29.35620	-658.73480	800.51489	-30.44143	-636.36584	-700.97052	37.75206	475.71698	713.16974	39.62255	578.60931	25.70660	1247.97363	-1047.21191	
5297	52.960	-769.93420	-28.96377	-658.52771	800.84650	-30.34839	-636.43231	-700.62360	37.64811	475.73495	713.37738	39.62680	578.51245	26.21809	1248.09473	-1047.25525	
5298	52.970	-769.45648	-29.04328	-658.49579	801.13885	-30.46419	-636.45386	-700.33582	37.58954	475.78043	713.81586	39.49422	578.76923	26.63206	1248.12341	-1047.29211	
5299	52.980	-769.02344	-29.00703	-658.58618	801.54724	-30.37779	-636.44128	-699.95874	37.55575	475.72275	714.23993	39.55987	578.85480	26.82243	1248.16113	-1047.32874	
5300	52.990	-768.64020	-28.88835	-658.55450	801.91522	-30.31848	-636.41827	-699.52466	37.66687	475.73264	714.81927	39.51756	578.77808	27.18299	1248.25317	-1047.26172	
5301	53.000	-768.39117	-28.78663	-658.65570	802.36182	-30.36691	-636.38684	-699.14532	37.76650	475.78491	715.32788	39.55217	578.76971	27.57978	1248.45605	-1046.89917	
5302	53.010	-767.86523	-28.92212	-658.65649	802.79150	-30.35982	-636.39380	-698.72766	37.62797	475.78055	715.64960	39.58136	578.71649	27.91158	1248.60437	-1046.47864	
5303	53.020	-767.71826	-28.81354	-658.91217	803.07361	-30.26193	-636.42194	-698.53156	37.52925	475.77731	715.86884	39.54628	578.69489	28.38367	1248.56104	-1046.13293	
